<svg xmlns="http://www.w3.org/2000/svg" viewBox="0 0 64 64" fill="none">
  <defs>
    <linearGradient id="museBg" x1="32" y1="2" x2="32" y2="62" gradientUnits="userSpaceOnUse">
      <stop stop-color="#19263E"/>
      <stop offset="1" stop-color="#070C17"/>
    </linearGradient>
    <radialGradient id="museGlow" cx="0" cy="0" r="1" gradientUnits="userSpaceOnUse" gradientTransform="translate(29 34) scale(26)">
      <stop stop-color="#0064E0" stop-opacity="0.55"/>
      <stop offset="1" stop-color="#0064E0" stop-opacity="0"/>
    </radialGradient>
    <linearGradient id="museSpark" x1="14" y1="16" x2="46" y2="52" gradientUnits="userSpaceOnUse">
      <stop stop-color="#EAF2FF"/>
      <stop offset="0.45" stop-color="#9DBCF4"/>
      <stop offset="1" stop-color="#0064E0"/>
    </linearGradient>
    <linearGradient id="museSparkSm" x1="40" y1="11" x2="52" y2="23" gradientUnits="userSpaceOnUse">
      <stop stop-color="#FFFFFF"/>
      <stop offset="1" stop-color="#7EB3FF"/>
    </linearGradient>
  </defs>
  <rect x="2" y="2" width="60" height="60" rx="16" fill="url(#museBg)" stroke="#2F3F58" stroke-width="1.5"/>
  <circle cx="29" cy="34" r="26" fill="url(#museGlow)"/>
  <path d="M29 11c1.3 13.1 8.6 20.4 21.7 21.7C37.6 34 30.3 41.3 29 54.4 27.7 41.3 20.4 34 7.3 32.7 20.4 31.4 27.7 24.1 29 11Z" fill="url(#museSpark)"/>
  <path d="M46 10c.5 5.1 3.3 7.9 8.4 8.4-5.1.5-7.9 3.3-8.4 8.4-.5-5.1-3.3-7.9-8.4-8.4 5.1-.5 7.9-3.3 8.4-8.4Z" fill="url(#museSparkSm)"/>
</svg>
